<?xml version="1.0" standalone="no"?>
<!DOCTYPE svg PUBLIC "-//W3C//DTD SVG 20010904//EN"
 "http://www.w3.org/TR/2001/REC-SVG-20010904/DTD/svg10.dtd">
<svg version="1.0" xmlns="http://www.w3.org/2000/svg"
 width="472.000000pt" height="446.000000pt" viewBox="0 0 472.000000 446.000000"
 preserveAspectRatio="xMidYMid meet">

<g transform="translate(0.000000,446.000000) scale(0.100000,-0.100000)"
fill="#000000" stroke="none">
<path d="M3385 3743 c-286 -25 -509 -134 -713 -348 -391 -411 -428 -1042 -90
-1543 151 -224 384 -392 634 -457 100 -26 276 -38 373 -25 193 25 406 104 546
204 86 62 193 180 238 264 l37 70 -256 153 c-142 85 -260 155 -264 157 -4 1
-19 -21 -33 -50 -73 -147 -210 -231 -380 -229 -169 1 -309 96 -392 265 -128
262 -94 644 75 829 67 73 118 106 197 128 81 23 137 24 222 4 134 -32 231
-107 287 -222 26 -52 27 -53 50 -38 80 52 460 328 462 336 2 5 -21 46 -51 92
-194 291 -547 445 -942 410z"/>
<path d="M1120 3715 c-225 -38 -428 -150 -595 -327 -118 -126 -190 -243 -249
-406 -191 -533 32 -1168 514 -1460 90 -54 229 -108 329 -126 275 -52 613 24
847 190 86 61 194 180 237 261 l36 69 -251 150 c-139 82 -256 150 -262 152 -6
1 -22 -21 -35 -50 -31 -68 -116 -152 -186 -184 -168 -77 -350 -43 -479 89
-113 117 -167 268 -169 477 -1 149 18 250 70 360 48 100 145 198 229 230 115
43 268 34 376 -21 58 -30 138 -114 167 -177 14 -29 28 -52 32 -52 20 0 474
333 473 346 -3 27 -69 126 -127 189 -123 135 -302 237 -494 280 -89 20 -133
25 -248 24 -77 -1 -174 -7 -215 -14z"/>
<path d="M312 983 c-50 -24 -82 -78 -82 -136 0 -125 109 -202 216 -151 30 14
63 51 52 58 -57 38 -57 38 -86 16 -39 -29 -76 -15 -92 34 -26 81 45 151 101
100 17 -15 20 -14 49 6 30 22 31 23 13 42 -41 46 -114 59 -171 31z"/>
<path d="M540 840 l0 -160 110 0 110 0 0 40 0 40 -71 0 c-67 0 -70 1 -67 23 3
19 10 22 61 25 l57 3 0 34 0 35 -60 0 c-53 0 -60 2 -60 20 0 18 7 20 70 20
l70 0 0 40 0 40 -110 0 -110 0 0 -160z"/>
<path d="M810 840 l0 -160 40 0 39 0 3 77 3 78 63 -78 c57 -69 67 -77 98 -77
l34 0 0 160 0 160 -45 0 -45 0 0 -81 0 -81 -65 81 c-56 68 -70 81 -95 81 l-30
0 0 -160z"/>
<path d="M1120 960 l0 -40 45 0 45 0 0 -120 0 -120 45 0 45 0 0 120 0 120 45
0 45 0 0 40 0 40 -135 0 -135 0 0 -40z"/>
<path d="M1420 841 l0 -161 45 0 45 0 0 50 c0 38 4 50 15 50 9 0 30 -22 47
-50 30 -49 32 -50 80 -50 37 0 47 3 42 13 -5 6 -20 32 -36 56 l-27 44 19 25
c31 39 27 104 -9 144 -29 32 -31 33 -125 36 l-96 4 0 -161z m165 59 c9 -28
-11 -50 -46 -50 -26 0 -29 3 -29 35 0 33 2 35 34 35 26 0 36 -5 41 -20z"/>
<path d="M1802 983 c-146 -72 -96 -303 66 -303 83 0 161 96 147 179 -18 109
-122 169 -213 124z m108 -78 c7 -8 15 -35 17 -59 5 -38 2 -48 -21 -71 -26 -26
-53 -27 -83 -3 -16 13 -27 70 -18 97 15 48 77 69 105 36z"/>
<path d="M2235 986 c-65 -29 -105 -106 -91 -173 25 -111 142 -168 227 -110 44
30 47 48 9 71 -28 16 -33 16 -43 3 -57 -72 -145 44 -91 121 18 26 65 30 88 6
14 -14 19 -14 46 3 36 21 35 38 -1 66 -34 25 -105 31 -144 13z"/>
<path d="M2450 888 c0 -94 3 -118 20 -145 54 -89 199 -83 243 10 13 26 17 63
17 141 l0 106 -39 0 -39 0 -4 -106 c-3 -97 -6 -108 -27 -125 -30 -25 -37 -24
-66 6 -23 22 -25 31 -25 125 l0 100 -40 0 -40 0 0 -112z"/>
<path d="M2780 840 l0 -160 115 0 115 0 0 40 0 40 -70 0 -70 0 0 120 0 120
-45 0 -45 0 0 -160z"/>
<path d="M3030 960 l0 -40 45 0 45 0 0 -120 0 -120 40 0 40 0 0 120 0 120 45
0 45 0 0 40 0 40 -130 0 -130 0 0 -40z"/>
<path d="M3320 914 c0 -108 14 -165 50 -199 59 -56 181 -40 218 29 11 22 17
64 20 144 l4 112 -46 0 -46 0 0 -105 c0 -93 -2 -107 -21 -126 -14 -14 -27 -18
-42 -14 -40 12 -47 33 -47 142 l0 103 -45 0 -45 0 0 -86z"/>
<path d="M3660 840 l0 -160 45 0 45 0 0 50 c0 38 4 50 15 50 8 0 29 -22 46
-50 l31 -50 94 0 95 0 6 30 c5 28 8 30 53 30 46 0 49 -2 55 -30 6 -28 10 -30
52 -30 32 0 44 4 41 13 -3 6 -29 79 -59 160 l-54 148 -35 -3 -34 -3 -56 -147
c-30 -81 -58 -149 -61 -153 -4 -3 -21 17 -38 44 l-31 51 20 32 c36 59 22 125
-32 158 -26 16 -51 20 -115 20 l-83 0 0 -160z m163 61 c7 -29 -11 -51 -43 -51
-28 0 -30 3 -30 35 0 33 2 35 34 35 24 0 35 -5 39 -19z m281 -38 c4 -16 9 -36
12 -45 4 -15 -1 -18 -26 -18 -27 0 -31 3 -25 18 3 9 9 29 12 45 3 15 9 27 13
27 4 0 11 -12 14 -27z"/>
<path d="M4270 840 l0 -160 116 0 115 0 -3 38 -3 37 -72 3 -73 3 0 119 0 120
-40 0 -40 0 0 -160z"/>
</g>
</svg>
